<svg xmlns="http://www.w3.org/2000/svg" width="720" height="1280"><rect width="720" height="1280" fill="#263443"/><rect y="760" width="720" height="520" fill="#101821"/><path d="M0 820Q180 770 360 830T720 810V1280H0Z" fill="#17222d"/><g stroke="#7d9aae" stroke-width="4" opacity=".55"><line x1="0" y1="40" x2="-35" y2="120"/><line x1="83" y1="87" x2="48" y2="167"/><line x1="166" y1="134" x2="131" y2="214"/><line x1="249" y1="181" x2="214" y2="261"/><line x1="332" y1="228" x2="297" y2="308"/><line x1="415" y1="275" x2="380" y2="355"/><line x1="498" y1="322" x2="463" y2="402"/><line x1="581" y1="369" x2="546" y2="449"/><line x1="664" y1="416" x2="629" y2="496"/><line x1="27" y1="463" x2="-8" y2="543"/><line x1="110" y1="510" x2="75" y2="590"/><line x1="193" y1="557" x2="158" y2="637"/><line x1="276" y1="604" x2="241" y2="684"/><line x1="359" y1="651" x2="324" y2="731"/><line x1="442" y1="48" x2="407" y2="128"/><line x1="525" y1="95" x2="490" y2="175"/><line x1="608" y1="142" x2="573" y2="222"/><line x1="691" y1="189" x2="656" y2="269"/><line x1="54" y1="236" x2="19" y2="316"/><line x1="137" y1="283" x2="102" y2="363"/><line x1="220" y1="330" x2="185" y2="410"/><line x1="303" y1="377" x2="268" y2="457"/><line x1="386" y1="424" x2="351" y2="504"/><line x1="469" y1="471" x2="434" y2="551"/><line x1="552" y1="518" x2="517" y2="598"/><line x1="635" y1="565" x2="600" y2="645"/><line x1="718" y1="612" x2="683" y2="692"/><line x1="81" y1="659" x2="46" y2="739"/><line x1="164" y1="56" x2="129" y2="136"/><line x1="247" y1="103" x2="212" y2="183"/><line x1="330" y1="150" x2="295" y2="230"/><line x1="413" y1="197" x2="378" y2="277"/><line x1="496" y1="244" x2="461" y2="324"/><line x1="579" y1="291" x2="544" y2="371"/><line x1="662" y1="338" x2="627" y2="418"/></g><circle cx="360" cy="700" r="115" fill="#1b2732"/><circle cx="360" cy="610" r="38" fill="#b7a99f"/><path d="M300 670Q360 630 420 670L455 850H265Z" fill="#5d6870"/><path d="M320 845L300 1010M400 845L420 1010" stroke="#7c8790" stroke-width="28" stroke-linecap="round"/><text x="360" y="1080" text-anchor="middle" fill="#dce7ee" font-size="30" font-family="sans-serif">ليلة باردة</text></svg>