<svg xmlns="http://www.w3.org/2000/svg" width="720" height="1280"><rect width="720" height="1280" fill="#667b8d"/><path d="M0 780L720 700V1280H0Z" fill="#d5e0e5"/><path d="M0 900L720 820" stroke="#aabac4" stroke-width="18"/><g fill="#fff" opacity=".8"><circle cx="0" cy="50" r="3"/><circle cx="137" cy="103" r="4"/><circle cx="274" cy="156" r="5"/><circle cx="411" cy="209" r="6"/><circle cx="548" cy="262" r="3"/><circle cx="685" cy="315" r="4"/><circle cx="102" cy="368" r="5"/><circle cx="239" cy="421" r="6"/><circle cx="376" cy="474" r="3"/><circle cx="513" cy="527" r="4"/><circle cx="650" cy="580" r="5"/><circle cx="67" cy="633" r="6"/><circle cx="204" cy="686" r="3"/><circle cx="341" cy="739" r="4"/><circle cx="478" cy="62" r="5"/><circle cx="615" cy="115" r="6"/><circle cx="32" cy="168" r="3"/><circle cx="169" cy="221" r="4"/><circle cx="306" cy="274" r="5"/><circle cx="443" cy="327" r="6"/><circle cx="580" cy="380" r="3"/><circle cx="717" cy="433" r="4"/><circle cx="134" cy="486" r="5"/><circle cx="271" cy="539" r="6"/><circle cx="408" cy="592" r="3"/><circle cx="545" cy="645" r="4"/><circle cx="682" cy="698" r="5"/><circle cx="99" cy="751" r="6"/><circle cx="236" cy="74" r="3"/><circle cx="373" cy="127" r="4"/><circle cx="510" cy="180" r="5"/><circle cx="647" cy="233" r="6"/><circle cx="64" cy="286" r="3"/><circle cx="201" cy="339" r="4"/><circle cx="338" cy="392" r="5"/><circle cx="475" cy="445" r="6"/><circle cx="612" cy="498" r="3"/><circle cx="29" cy="551" r="4"/><circle cx="166" cy="604" r="5"/><circle cx="303" cy="657" r="6"/><circle cx="440" cy="710" r="3"/><circle cx="577" cy="763" r="4"/><circle cx="714" cy="86" r="5"/><circle cx="131" cy="139" r="6"/><circle cx="268" cy="192" r="3"/><circle cx="405" cy="245" r="4"/><circle cx="542" cy="298" r="5"/><circle cx="679" cy="351" r="6"/><circle cx="96" cy="404" r="3"/><circle cx="233" cy="457" r="4"/></g><circle cx="210" cy="600" r="34" fill="#b7a99f"/><path d="M155 660Q210 625 265 660L280 820H140Z" fill="#4f5b63"/><path d="M175 815L135 970M245 815L290 950" stroke="#5c6870" stroke-width="26" stroke-linecap="round"/><path d="M455 610L650 610L650 820L455 820Z" fill="#293640"/><path d="M480 650L625 650L625 790L480 790Z" fill="#9a7d5b"/><text x="360" y="1080" text-anchor="middle" fill="#253440" font-size="32" font-family="sans-serif">ابحث عن مكان آمن</text></svg>